<svg width="20" height="20" viewBox="0 0 20 20" fill="none" xmlns="http://www.w3.org/2000/svg">
<path d="M11.6668 9.16602H6.66683M8.3335 12.4993H6.66683M13.3335 5.83268H6.66683M16.6668 8.74935V5.66602C16.6668 4.26588 16.6668 3.56582 16.3943 3.03104C16.1547 2.56063 15.7722 2.17818 15.3018 1.9385C14.767 1.66602 14.067 1.66602 12.6668 1.66602H7.3335C5.93336 1.66602 5.2333 1.66602 4.69852 1.9385C4.22811 2.17818 3.84566 2.56063 3.60598 3.03104C3.3335 3.56582 3.3335 4.26588 3.3335 5.66602V14.3327C3.3335 15.7328 3.3335 16.4329 3.60598 16.9677C3.84566 17.4381 4.22811 17.8205 4.69852 18.0602C5.2333 18.3327 5.93336 18.3327 7.3335 18.3327H9.5835M18.3335 18.3327L17.0835 17.0827M17.9168 14.9993C17.9168 16.6102 16.611 17.916 15.0002 17.916C13.3893 17.916 12.0835 16.6102 12.0835 14.9993C12.0835 13.3885 13.3893 12.0827 15.0002 12.0827C16.611 12.0827 17.9168 13.3885 17.9168 14.9993Z" stroke="#EE0033" stroke-width="1.66667" stroke-linecap="round" stroke-linejoin="round"/>
</svg>
